<?xml version="1.0" standalone="no"?>
<!DOCTYPE svg PUBLIC "-//W3C//DTD SVG 20010904//EN"
 "http://www.w3.org/TR/2001/REC-SVG-20010904/DTD/svg10.dtd">
<svg version="1.0" xmlns="http://www.w3.org/2000/svg"
 width="400.000000pt" height="400.000000pt" viewBox="0 0 400.000000 400.000000"
 preserveAspectRatio="xMidYMid meet">
<metadata>
Created by potrace 1.14, written by Peter Selinger 2001-2017
</metadata>
<g transform="translate(0.000000,400.000000) scale(0.100000,-0.100000)"
fill="#000000" stroke="none">
<path d="M0 3410 c0 -533 2 -589 16 -583 9 3 86 7 172 8 92 1 176 7 202 14 31
9 135 14 331 15 257 3 290 5 327 22 23 10 42 22 42 25 0 15 -58 29 -100 24
-57 -6 -165 11 -195 31 -13 9 -67 18 -133 24 -61 6 -122 14 -137 20 -14 5 -55
10 -90 10 -35 0 -99 5 -142 11 -87 12 -124 31 -53 27 25 -1 162 -1 305 1 l260
3 -77 17 c-43 10 -81 21 -85 24 -10 11 147 8 197 -4 29 -7 85 -7 155 -2 66 5
92 9 66 11 -24 2 -53 9 -65 17 -13 8 -66 15 -134 18 -63 2 -119 10 -125 16
-17 17 6 20 183 24 163 5 166 5 258 42 l93 38 132 -6 c73 -3 142 -9 154 -12
28 -9 23 -16 -75 -119 -76 -80 -90 -113 -77 -183 13 -71 67 -166 132 -233 35
-35 79 -87 98 -115 19 -27 47 -67 62 -88 15 -20 41 -56 57 -80 35 -49 158
-174 231 -233 54 -43 126 -84 151 -84 18 0 137 -59 145 -72 4 -5 9 -77 13
-159 7 -141 6 -152 -14 -194 -19 -40 -20 -50 -10 -100 8 -40 9 -80 1 -147 -25
-217 -33 -357 -36 -584 -1 -133 -5 -246 -8 -252 -4 -5 -9 -35 -12 -67 -5 -46
-2 -61 11 -76 14 -16 16 -32 11 -99 -11 -145 -48 -183 -164 -173 -72 7 -150
-5 -118 -17 11 -4 45 -11 75 -16 50 -7 52 -8 22 -13 -52 -9 -38 -25 30 -34
126 -16 129 -17 126 -35 -3 -17 -23 -22 -173 -39 l-60 -7 45 -9 c25 -6 354
-12 744 -14 715 -4 756 -2 756 34 0 6 10 19 22 27 29 20 16 21 -22 1 -17 -9
-30 -22 -30 -30 0 -8 -4 -15 -10 -15 -15 0 -12 40 4 46 7 3 22 21 32 39 18 34
18 35 0 48 -13 9 -16 19 -11 28 14 22 15 63 2 71 -9 6 -9 8 1 8 6 0 12 5 12
11 0 6 -7 8 -15 5 -8 -3 -21 -9 -29 -12 -10 -4 -17 5 -22 28 -4 18 -7 39 -5
46 1 6 -5 12 -14 12 -18 0 -19 -13 -4 -43 7 -12 8 -19 4 -15 -4 4 -13 1 -19
-7 -6 -8 -23 -16 -37 -19 -26 -4 -26 -3 -21 46 3 37 2 49 -7 44 -7 -5 -11 1
-11 14 0 18 -4 20 -22 14 -26 -8 -38 -22 -38 -46 0 -22 -36 -24 -44 -3 -3 9 0
24 6 35 15 24 6 35 -19 21 -10 -5 -26 -12 -36 -15 -10 -3 -15 -10 -12 -16 3
-5 -5 -15 -19 -21 -14 -7 -23 -15 -21 -19 3 -5 -7 -11 -23 -15 -40 -10 -72
-33 -66 -49 4 -9 -6 -16 -30 -20 -24 -5 -33 -11 -30 -20 4 -11 -15 -14 -93
-14 -54 0 -111 -5 -128 -10 l-30 -10 35 -1 c24 -1 31 -4 21 -10 -15 -10 -4
-15 59 -25 29 -5 36 -11 36 -29 0 -12 -10 -31 -23 -43 -19 -18 -32 -20 -92
-17 -48 3 -78 0 -98 -10 -21 -11 -32 -12 -45 -4 -12 8 -23 8 -40 -1 -31 -15
-243 -11 -260 6 -7 7 -22 12 -35 12 -15 0 -23 6 -23 16 0 12 3 14 13 6 8 -7
18 -7 27 -2 10 7 11 10 3 10 -20 0 -15 20 5 21 10 0 12 3 5 6 -15 6 -17 33 -3
33 6 0 10 4 10 10 0 5 -18 13 -39 16 -44 7 -61 37 -36 64 8 9 15 23 15 32 0 8
3 18 6 21 4 4 8 22 10 41 2 19 12 53 24 76 17 33 19 45 9 56 -9 11 -9 14 1 14
10 0 10 3 0 15 -7 8 -9 15 -5 15 4 0 2 6 -4 14 -27 32 -38 478 -17 666 23 195
43 324 66 412 20 73 20 80 4 145 -8 37 -18 117 -21 177 l-6 108 22 -11 c25
-14 61 1 61 24 0 21 14 19 56 -10 20 -14 47 -25 60 -25 12 0 26 -4 29 -10 3
-5 14 -10 23 -10 9 0 44 -13 77 -28 33 -15 68 -26 77 -24 9 2 27 -4 40 -12 13
-8 42 -18 66 -22 53 -8 99 -38 130 -84 26 -39 42 -49 42 -26 0 35 25 23 91
-43 63 -63 73 -70 91 -60 17 9 20 9 15 -4 -3 -10 1 -17 14 -20 13 -4 19 0 19
13 0 10 7 34 15 54 l15 36 30 -32 c22 -25 29 -29 30 -15 0 10 8 17 20 17 19 0
20 4 14 63 -10 93 -10 102 0 107 10 5 16 -12 36 -88 8 -30 15 -42 25 -38 9 3
16 -5 20 -25 4 -16 11 -29 16 -29 6 0 5 8 -1 20 -16 30 -24 254 -9 244 8 -4 9
-3 5 5 -4 6 -12 8 -18 5 -7 -5 -9 2 -4 20 4 15 3 25 -1 23 -4 -3 -8 8 -9 24
-1 16 3 29 7 29 13 0 11 17 -4 32 -18 18 -67 116 -67 134 0 16 -90 131 -137
176 -115 109 -220 226 -183 203 9 -6 9 -3 1 14 -7 11 -16 21 -21 21 -6 0 -10
4 -10 10 0 5 6 7 14 4 8 -3 34 1 58 9 33 11 62 12 123 6 44 -5 118 -6 165 -3
66 4 108 1 184 -15 55 -12 115 -21 134 -21 23 0 44 -8 59 -22 22 -20 28 -21
92 -12 49 7 80 6 110 -3 l41 -12 0 690 0 689 -2000 0 -2000 0 0 -590z m3455
549 c27 -27 -100 -40 -177 -18 -38 10 -45 18 -30 33 10 11 194 -3 207 -15z
m-1130 -15 c23 -11 24 -13 5 -8 -22 6 -54 10 -127 13 -13 1 -23 5 -23 10 0 13
108 1 145 -15z m-365 -99 c44 -22 78 -53 96 -86 l13 -27 -49 19 c-30 11 -61
16 -78 13 -28 -6 -29 -7 -19 -39 14 -46 -6 -68 -43 -48 -14 7 -25 17 -25 23 0
5 -4 10 -10 10 -17 -1 -65 -24 -65 -32 0 -5 -10 -8 -23 -8 -38 0 -61 -38 -63
-105 -2 -33 -3 -64 -3 -70 -1 -6 -32 -9 -80 -7 -53 2 -93 -2 -122 -12 -42 -14
-42 -15 -13 -16 17 0 55 -7 84 -16 30 -9 75 -17 101 -18 51 -1 61 -13 75 -86
4 -19 15 -50 25 -69 l18 -35 -40 -23 c-23 -13 -44 -23 -48 -23 -10 0 -111 -76
-148 -112 -22 -21 -35 -28 -47 -21 -13 7 -13 13 3 48 10 22 31 54 48 70 50 51
94 118 84 128 -6 6 -170 9 -403 9 -296 0 -412 3 -468 14 -41 8 -104 14 -140
15 -77 1 -112 10 -118 28 -4 12 47 13 312 6 227 -5 316 -4 316 4 0 6 -4 11
-10 11 -16 0 -11 27 6 34 9 3 42 6 74 6 32 0 70 6 85 14 l27 14 -44 7 c-48 8
-118 40 -118 55 0 14 16 20 77 30 31 5 59 14 63 20 3 6 28 16 56 24 27 7 70
19 96 27 39 11 61 11 124 0 43 -7 83 -15 91 -18 10 -4 13 8 13 49 0 143 73
224 195 215 34 -2 76 -12 95 -22z m740 15 c58 -3 96 -8 85 -9 l-20 -2 20 -9
c18 -8 17 -9 -8 -9 -16 -1 -38 4 -49 10 -15 8 -19 8 -14 0 5 -8 -17 -11 -71
-12 -43 0 -98 -3 -123 -5 -161 -14 -210 -6 -180 31 10 12 36 15 134 14 66 -1
168 -5 226 -9z m624 -6 c26 -10 7 -24 -32 -24 -35 1 -36 2 -18 15 22 17 27 18
50 9z m191 -85 c54 -20 71 -38 38 -40 -21 -1 -48 -5 -84 -14 -22 -6 -29 -2
-47 28 -11 20 -18 38 -15 41 12 11 53 6 108 -15z m245 -34 c0 -14 -17 -19 -50
-16 -55 6 -47 31 11 31 28 0 39 -4 39 -15z m-2234 -5 c31 0 44 -4 44 -14 0
-32 -187 -30 -197 1 -5 13 39 22 81 17 16 -2 48 -4 72 -4z m1328 -15 c13 -18
26 -20 120 -20 70 0 109 -4 118 -13 6 -6 23 -12 36 -12 18 0 23 -4 18 -16 -3
-9 3 -27 15 -42 l21 -27 -28 -3 c-16 -2 -44 4 -62 14 -28 15 -39 16 -83 6 -63
-15 -150 -15 -220 -1 -30 5 -103 12 -164 15 -114 4 -165 17 -165 40 0 17 51
44 84 44 15 0 30 8 37 21 10 20 17 21 134 18 110 -4 126 -6 139 -24z m420 -21
c8 -3 12 -12 9 -20 -3 -9 1 -14 11 -14 9 0 19 -7 22 -15 4 -8 23 -23 43 -32
l36 -18 -42 -6 c-23 -3 -53 -14 -65 -25 -13 -10 -25 -20 -28 -22 -3 -2 3 -10
13 -17 16 -11 16 -14 2 -28 -13 -14 -12 -16 18 -23 17 -3 41 -15 52 -25 11
-11 29 -26 40 -35 19 -15 19 -15 -10 -9 -16 4 -67 7 -112 9 -68 2 -87 6 -105
23 -13 11 -33 24 -46 28 -40 12 -20 34 66 74 77 36 80 39 53 44 -24 5 -28 10
-24 27 3 11 0 27 -7 35 -6 8 -8 20 -4 26 5 9 2 10 -9 6 -17 -6 -23 4 -10 16 8
9 76 9 97 1z m577 -50 c10 -13 10 -17 -1 -24 -17 -10 -73 16 -65 30 10 16 51
12 66 -6z m-3157 -60 c29 -11 5 -24 -43 -24 -60 0 -111 10 -111 21 0 10 130
12 154 3z m1791 -14 c-3 -5 -12 -10 -20 -10 -8 0 -17 5 -20 10 -4 6 5 10 20
10 15 0 24 -4 20 -10z m-193 -20 c42 -33 68 -38 224 -45 245 -11 314 -24 314
-58 0 -6 7 -18 15 -28 14 -14 14 -19 2 -31 -10 -10 -37 -13 -101 -11 -66 2
-86 -1 -86 -11 0 -8 -7 -19 -15 -26 -23 -19 -1 -30 57 -30 64 0 78 -7 78 -41
0 -21 -5 -29 -17 -29 -12 0 -14 -3 -7 -10 7 -7 23 -5 49 6 29 12 44 13 62 5
33 -15 29 -29 -12 -37 -19 -3 -38 -10 -41 -15 -9 -15 -108 -10 -132 7 -33 23
-47 7 -19 -22 17 -17 42 -26 86 -32 68 -10 76 -14 68 -37 -4 -10 -20 -15 -44
-16 -54 -1 -103 -8 -120 -17 -15 -9 68 -26 180 -38 31 -3 57 -9 57 -14 0 -12
-67 -30 -115 -30 -22 0 -47 -5 -55 -10 -11 -7 -8 -10 16 -10 42 0 96 -20 91
-33 -2 -6 -16 -14 -32 -19 -27 -7 -62 9 -103 49 -7 7 -18 13 -23 13 -10 0
-175 75 -199 90 -8 6 -25 15 -37 22 -14 7 -21 19 -20 32 1 15 -9 26 -38 41
-22 11 -61 32 -86 46 -26 15 -67 29 -92 33 -25 4 -49 12 -54 19 -8 10 -33 106
-33 125 0 4 22 7 48 8 33 1 60 9 91 28 57 36 43 46 -66 46 -88 0 -117 14 -111
53 6 44 173 64 220 27z m-402 -40 c8 -15 6 -18 -8 -16 -9 2 -19 13 -20 26 -4
25 12 20 28 -10z m1947 -6 c-3 -3 -12 -4 -19 -1 -8 3 -5 6 6 6 11 1 17 -2 13
-5z m-1869 -111 c27 -4 40 -15 63 -51 16 -25 26 -49 22 -52 -8 -7 -159 -40
-181 -40 -10 0 -12 16 -6 73 3 39 9 76 11 80 3 5 17 6 32 2 14 -3 41 -9 59
-12z m1442 -118 c14 -17 6 -22 -61 -30 -74 -9 -103 -1 -89 26 9 16 21 19 75
18 39 -1 69 -7 75 -14z m-200 -55 c17 -11 17 -11 -32 -14 -36 -3 -46 3 -31 17
9 10 46 8 63 -3z m509 -26 c9 -8 -13 -24 -33 -24 -30 0 -39 10 -25 27 10 11
43 10 58 -3z m-256 -101 c-7 -2 -19 -2 -25 0 -7 3 -2 5 12 5 14 0 19 -2 13 -5z
m27 -53 c0 -5 -6 -10 -14 -10 -8 0 -18 5 -21 10 -3 6 3 10 14 10 12 0 21 -4
21 -10z m-202 -32 c-3 -8 -27 -14 -58 -16 -47 -3 -52 -1 -40 12 16 20 104 23
98 4z m-2599 -84 c51 -11 35 -24 -28 -24 -65 0 -94 7 -85 21 6 10 67 12 113 3z
m2971 -45 c36 -6 118 -12 183 -13 72 -2 123 -8 130 -15 8 -8 4 -11 -15 -11
-38 0 -42 -15 -11 -39 l28 -20 -30 -1 c-17 0 -49 10 -70 21 -36 20 -57 22
-197 23 -137 1 -160 4 -175 19 -17 17 -17 19 1 33 24 17 68 18 156 3z m-725
-117 c-8 -8 -115 76 -115 90 0 5 27 -13 59 -39 33 -26 58 -49 56 -51z m165
-247 c74 -75 95 -105 70 -105 -5 0 -10 5 -10 12 0 14 -30 48 -42 48 -21 0 -4
-37 38 -82 27 -29 43 -41 39 -29 -5 16 -3 20 10 15 9 -4 14 -13 10 -21 -3 -11
-1 -13 10 -9 10 3 19 -2 26 -17 5 -12 16 -33 25 -47 8 -14 13 -36 12 -50 -2
-14 6 -34 20 -49 12 -13 22 -29 22 -36 0 -7 9 -32 19 -56 10 -24 21 -69 24
-99 3 -30 3 -43 -1 -28 -4 14 -20 36 -35 49 -20 15 -28 28 -25 44 3 15 -3 29
-18 41 -13 11 -23 25 -24 32 0 6 -7 12 -16 12 -10 0 -14 5 -10 15 3 9 -1 18
-9 21 -9 4 -15 19 -15 36 0 23 -4 29 -15 24 -8 -3 -14 -2 -13 2 1 4 -4 20 -10
35 -7 16 -12 34 -12 42 0 20 -17 27 -24 10 -3 -8 4 -40 14 -71 23 -66 26 -118
8 -111 -7 2 -12 12 -10 22 2 10 -2 15 -10 13 -19 -7 -35 50 -49 174 l-13 110
-28 -4 c-23 -4 -33 1 -50 25 -35 49 -68 121 -68 148 0 14 -11 36 -25 49 -14
13 -25 31 -25 39 0 9 29 -14 65 -54 35 -38 101 -106 145 -150z m-63 -157 c-3
-8 -6 -5 -6 6 -1 11 2 17 5 13 3 -3 4 -12 1 -19z m-17 -71 c0 -6 -9 -2 -20 8
-11 10 -17 22 -13 28 6 10 33 -19 33 -36z m20 -52 c0 -8 -4 -15 -10 -15 -5 0
-10 7 -10 15 0 8 5 15 10 15 6 0 10 -7 10 -15z m160 -115 c0 -5 -2 -10 -4 -10
-3 0 -8 5 -11 10 -3 6 -1 10 4 10 6 0 11 -4 11 -10z m-227 -2006 c-3 -8 0 -14
6 -14 6 0 11 -4 11 -10 0 -5 -11 -10 -25 -10 -21 0 -25 5 -25 29 0 24 4 28 19
24 12 -3 17 -11 14 -19z"/>
<path d="M1380 3460 c-11 -7 -4 -10 25 -10 29 0 36 3 25 10 -8 5 -19 10 -25
10 -5 0 -17 -5 -25 -10z"/>
<path d="M2340 3461 c-20 -5 -12 -9 41 -19 92 -17 111 -16 107 6 -3 14 -15 17
-63 19 -33 1 -71 -2 -85 -6z"/>
<path d="M2558 3213 c12 -2 30 -2 40 0 9 3 -1 5 -23 4 -22 0 -30 -2 -17 -4z"/>
<path d="M3297 2146 c3 -15 10 -29 15 -32 6 -4 7 2 3 17 -10 35 -23 45 -18 15z"/>
<path d="M937 2969 c7 -7 60 -13 125 -15 104 -4 111 -3 83 11 -37 18 -226 22
-208 4z"/>
<path d="M195 2781 c-24 -9 55 -20 145 -19 l55 0 -45 10 c-69 14 -133 18 -155
9z"/>
<path d="M760 2711 c15 -9 69 -15 105 -11 25 3 -50 19 -90 19 -22 0 -26 -2
-15 -8z"/>
<path d="M0 2689 c0 -20 4 -21 46 -14 26 3 53 9 61 12 26 10 -7 23 -59 23 -42
0 -48 -3 -48 -21z"/>
<path d="M3095 2651 c-2 -5 3 -15 13 -24 26 -23 261 -44 302 -27 43 18 27 30
-40 30 -33 0 -81 4 -107 9 -73 14 -162 20 -168 12z"/>
<path d="M52 2633 c-47 -4 -52 -6 -52 -28 0 -20 6 -25 38 -30 20 -4 48 -10 62
-15 14 -5 41 -7 60 -6 19 2 115 7 212 11 98 5 175 12 172 17 -3 4 -18 8 -34 8
-16 0 -57 7 -92 14 -56 13 -118 20 -268 29 -25 2 -69 2 -98 0z"/>
<path d="M3545 2620 c-4 -6 10 -10 35 -10 25 0 39 4 35 10 -3 6 -19 10 -35 10
-16 0 -32 -4 -35 -10z"/>
<path d="M3240 2541 c0 -3 17 -23 36 -45 l36 -38 177 -23 c97 -13 190 -28 206
-34 17 -6 84 -15 150 -20 66 -5 128 -12 138 -16 14 -6 17 -2 17 28 0 33 -2 35
-57 52 -32 10 -71 26 -88 35 -29 17 -234 45 -315 42 -19 0 -75 3 -125 9 -138
14 -175 17 -175 10z"/>
<path d="M35 2441 c6 -6 69 -16 140 -21 225 -18 739 -38 754 -30 37 20 -243
45 -514 45 -77 1 -196 5 -265 9 -93 6 -122 6 -115 -3z"/>
<path d="M3380 2401 c0 -6 9 -9 19 -8 11 0 17 5 15 9 -7 11 -34 10 -34 -1z"/>
<path d="M0 2330 c0 -11 4 -20 9 -20 11 0 22 26 14 34 -12 12 -23 5 -23 -14z"/>
<path d="M3862 2303 c-51 -18 -50 -37 1 -41 28 -2 37 0 37 13 0 9 12 18 30 21
33 7 31 24 -3 23 -12 0 -41 -7 -65 -16z"/>
<path d="M105 2270 c45 -11 87 -11 80 0 -3 6 -30 9 -58 9 -45 -1 -48 -2 -22
-9z"/>
<path d="M3870 2231 c0 -5 14 -11 30 -13 32 -5 41 6 14 16 -23 9 -44 7 -44 -3z"/>
<path d="M3975 2220 c-3 -5 1 -10 9 -10 9 0 16 5 16 10 0 6 -4 10 -9 10 -6 0
-13 -4 -16 -10z"/>
<path d="M3765 2183 c-111 -7 -123 -27 -23 -39 39 -4 66 -2 87 7 30 13 41 29
22 29 -5 0 -15 1 -23 3 -7 2 -35 2 -63 0z"/>
<path d="M249 2170 c-20 -13 33 -20 148 -20 64 0 114 4 118 10 7 11 -9 13
-152 15 -56 1 -107 -2 -114 -5z"/>
<path d="M3923 2149 c-42 -12 -42 -25 -2 -33 62 -12 79 -8 79 19 0 28 -18 31
-77 14z"/>
<path d="M3945 2020 c6 -9 -58 -16 -108 -12 -10 1 -26 -2 -34 -7 -14 -7 -13
-10 5 -20 11 -6 36 -9 54 -7 18 3 57 5 86 5 49 1 52 3 52 26 0 21 -5 25 -31
25 -17 0 -28 -4 -24 -10z"/>
<path d="M3930 1930 c20 -13 70 -13 70 0 0 6 -19 10 -42 10 -32 0 -39 -3 -28
-10z"/>
<path d="M3963 1783 c9 -2 23 -2 30 0 6 3 -1 5 -18 5 -16 0 -22 -2 -12 -5z"/>
<path d="M3831 1641 c-18 -12 35 -24 112 -25 73 -1 77 19 5 28 -71 8 -100 7
-117 -3z"/>
<path d="M3763 1633 c9 -2 25 -2 35 0 9 3 1 5 -18 5 -19 0 -27 -2 -17 -5z"/>
<path d="M2721 1486 c2 -2 53 -6 114 -9 70 -4 104 -3 95 3 -14 9 -219 15 -209
6z"/>
<path d="M3938 1463 c12 -2 32 -2 45 0 12 2 2 4 -23 4 -25 0 -35 -2 -22 -4z"/>
<path d="M3315 439 c-4 -6 -5 -13 -2 -16 7 -7 27 6 27 18 0 12 -17 12 -25 -2z"/>
<path d="M3250 429 c0 -5 5 -7 10 -4 6 3 10 8 10 11 0 2 -4 4 -10 4 -5 0 -10
-5 -10 -11z"/>
<path d="M3420 369 c0 -5 5 -7 10 -4 6 3 10 8 10 11 0 2 -4 4 -10 4 -5 0 -10
-5 -10 -11z"/>
</g>
</svg>
